# File created by Blade
# Date/Time:  Mon Sep 22 16:45:27 2014
# Frame Rate: 120.000 fps
#------------------------------------------------------
:FULLY-SPECIFIED
:DEGREES
2430
root 3.982398 37.204396 0.793163 -11.274085 29.234151 22.442625
RightUpLeg 15.458357 -13.916230 -16.873641
RightLeg 23.997841 -0.000000 -0.000000
RightFoot -33.096707 -31.492305 19.959580
RightToeBase 7.554467 -0.000000 -0.000000
LeftUpLeg -71.507345 36.626966 -8.266633
LeftLeg 116.089913 -0.000000 -0.000000
LeftFoot 25.144841 17.333541 -32.325682
LeftToeBase -3.514889 -0.000000 0.000000
Spine 32.168842 -9.589510 -5.871896
RightShoulder 1.638154 -12.354154 -22.133768
RightArm 9.136496 34.959808 45.371514
RightForeArm 19.290599 -0.000000 115.647020
RightHand 5.110564 -0.000000 -33.375724
RightHandThumb1 -24.326973 -0.000000 -32.862282
LeftShoulder -20.832167 32.066046 -8.442653
LeftArm 48.676987 15.081638 -48.567433
LeftForeArm 37.314972 -0.000000 101.384086
LeftHand -12.002513 -0.000000 -11.400973
LeftHandThumb1 -26.253704 0.000000 33.147579
Head 1.817352 -11.329437 -10.812178
2431
root 3.982006 37.216304 0.785095 -10.948249 28.773975 22.593216
RightUpLeg 14.992835 -13.786492 -16.946775
RightLeg 24.077249 -0.000000 -0.000000
RightFoot -33.006644 -31.283691 19.854703
RightToeBase 7.432367 -0.000000 -0.000000
LeftUpLeg -70.930471 36.492050 -7.478325
LeftLeg 115.684494 -0.000000 -0.000000
LeftFoot 24.896547 17.453414 -32.006518
LeftToeBase -3.193279 -0.000000 0.000000
Spine 31.746060 -9.348947 -5.926905
RightShoulder 1.627401 -12.411665 -22.159987
RightArm 9.317825 34.687742 45.404111
RightForeArm 19.219861 -0.000000 115.606187
RightHand 5.116032 -0.000000 -33.420714
RightHandThumb1 -24.326973 -0.000000 -32.862282
LeftShoulder -20.861615 32.082337 -8.500705
LeftArm 48.591455 15.061286 -48.561688
LeftForeArm 37.281108 -0.000000 101.410105
LeftHand -12.033981 0.000000 -11.538662
LeftHandThumb1 -26.253704 0.000000 33.147579
Head 1.844674 -11.183147 -11.025543
2432
root 3.985176 37.228582 0.778187 -10.623076 28.349045 22.767168
RightUpLeg 14.550305 -13.707826 -17.072320
RightLeg 24.174396 -0.000000 -0.000000
RightFoot -32.907021 -31.056594 19.738076
RightToeBase 7.296316 -0.000000 -0.000000
LeftUpLeg -70.325917 36.329770 -6.670747
LeftLeg 115.301476 -0.000000 -0.000000
LeftFoot 24.675485 17.686606 -31.628458
LeftToeBase -3.438518 -0.000000 0.000000
Spine 31.339758 -9.199478 -6.057595
RightShoulder 1.661888 -12.384104 -22.193435
RightArm 9.474308 34.336788 45.404223
RightForeArm 19.085656 -0.000000 115.553388
RightHand 5.123268 -0.000000 -33.584569
RightHandThumb1 -24.326973 -0.000000 -32.862282
LeftShoulder -20.965571 32.112003 -8.595163
LeftArm 48.522284 15.039288 -48.536610
LeftForeArm 37.261305 0.000000 101.459199
LeftHand -12.098766 0.000000 -11.532035
LeftHandThumb1 -26.253704 0.000000 33.147579
Head 1.856543 -11.011386 -11.255528
2433
root 3.986290 37.240184 0.776129 -10.293119 27.894355 22.928703
RightUpLeg 14.125903 -13.594725 -17.173835
RightLeg 24.169772 -0.000000 -0.000000
RightFoot -32.036402 -31.553899 18.792921
RightToeBase 6.009734 -0.000000 -0.000000
LeftUpLeg -69.702050 36.185809 -5.761788
LeftLeg 114.973768 -0.000000 -0.000000
LeftFoot 24.411777 18.013079 -31.322900
LeftToeBase -3.536494 -0.000000 0.000000
Spine 30.891819 -9.010197 -6.162955
RightShoulder 1.663685 -12.384393 -22.200987
RightArm 9.661272 33.972288 45.392803
RightForeArm 19.006164 -0.000000 115.486844
RightHand 5.163012 0.000000 -33.746641
RightHandThumb1 -24.326973 -0.000000 -32.862282
LeftShoulder -21.012760 32.122104 -8.679700
LeftArm 48.411696 14.986536 -48.510629
LeftForeArm 37.359516 -0.000000 101.487888
LeftHand -11.996181 -0.000000 -11.697235
LeftHandThumb1 -26.253704 0.000000 33.147579
Head 1.907387 -10.777209 -11.516964
2434
root 3.987548 37.252705 0.777482 -9.960490 27.443115 23.110646
RightUpLeg 13.733885 -13.501557 -17.311019
RightLeg 24.133904 -0.000000 -0.000000
RightFoot -31.190414 -32.017042 17.817905
RightToeBase 4.592403 -0.000000 -0.000000
LeftUpLeg -69.053926 36.047969 -4.818254
LeftLeg 114.695634 -0.000000 -0.000000
LeftFoot 24.124681 18.342042 -30.833162
LeftToeBase -3.542550 -0.000000 0.000000
Spine 30.426018 -8.864794 -6.331880
RightShoulder 1.709278 -12.461541 -22.196755
RightArm 9.982791 33.676885 45.467712
RightForeArm 18.883254 -0.000000 115.393717
RightHand 5.144309 0.000000 -33.772021
RightHandThumb1 -24.326973 -0.000000 -32.862282
LeftShoulder -21.062278 32.156035 -8.756675
LeftArm 48.269350 14.945118 -48.498071
LeftForeArm 37.342173 -0.000000 101.505154
LeftHand -11.987667 -0.000000 -11.625201
LeftHandThumb1 -26.253704 0.000000 33.147579
Head 1.984094 -10.481198 -11.775514
2435
root 3.995466 37.267647 0.785238 -9.644162 27.012120 23.321163
RightUpLeg 13.346665 -13.447516 -17.506440
RightLeg 24.218503 -0.000000 -0.000000
RightFoot -31.119071 -31.652102 17.838188
RightToeBase 4.233467 -0.000000 -0.000000
LeftUpLeg -68.287525 35.867812 -3.779761
LeftLeg 114.491420 -0.000000 -0.000000
LeftFoot 23.743689 18.581032 -30.372383
LeftToeBase -3.343337 -0.000000 0.000000
Spine 29.949055 -8.764420 -6.558254
RightShoulder 1.799957 -12.505725 -22.183976
RightArm 10.261116 33.317577 45.477460
RightForeArm 18.718263 -0.000000 115.273168
RightHand 5.068354 -0.000000 -33.764938
RightHandThumb1 -24.326973 -0.000000 -32.862282
LeftShoulder -21.131157 32.264627 -8.877127
LeftArm 48.163638 14.814759 -48.490418
LeftForeArm 37.420402 -0.000000 101.512958
LeftHand -11.901136 -0.000000 -11.811496
LeftHandThumb1 -26.253704 0.000000 33.147579
Head 2.141762 -10.190980 -12.060742
2436
root 4.001901 37.284066 0.798731 -9.319137 26.547183 23.546654
RightUpLeg 12.958434 -13.330728 -17.687885
RightLeg 24.250989 -0.000000 -0.000000
RightFoot -30.933198 -31.632758 17.276412
RightToeBase 4.461349 -0.000000 -0.000000
LeftUpLeg -67.456440 35.711402 -2.627828
LeftLeg 114.343652 -0.000000 -0.000000
LeftFoot 23.423292 18.789596 -29.819812
LeftToeBase -3.107549 -0.000000 0.000000
Spine 29.440880 -8.620629 -6.807449
RightShoulder 1.841893 -12.639806 -22.119463
RightArm 10.660475 32.931830 45.489698
RightForeArm 18.601873 -0.000000 115.106752
RightHand 5.196819 -0.000000 -33.879511
RightHandThumb1 -24.326973 -0.000000 -32.862282
LeftShoulder -21.200093 32.383194 -9.015726
LeftArm 48.069409 14.693567 -48.384358
LeftForeArm 37.397725 0.000000 101.518108
LeftHand -11.943140 -0.000000 -11.777625
LeftHandThumb1 -26.253704 0.000000 33.147579
Head 2.317922 -9.919441 -12.357178
2437
root 4.008508 37.304963 0.814576 -8.985862 26.112127 23.792119
RightUpLeg 12.599073 -13.130965 -17.852257
RightLeg 24.246968 -0.000000 -0.000000
RightFoot -30.840765 -31.442476 17.181600
RightToeBase 4.455730 -0.000000 -0.000000
LeftUpLeg -66.541541 35.457281 -1.375154
LeftLeg 114.255256 -0.000000 -0.000000
LeftFoot 23.081819 18.958170 -29.345018
LeftToeBase -2.860667 -0.000000 0.000000
Spine 28.888167 -8.527138 -7.099404
RightShoulder 1.931850 -12.766321 -22.082451
RightArm 11.076357 32.530494 45.582149
RightForeArm 18.432301 -0.000000 114.927758
RightHand 5.159378 0.000000 -33.937390
RightHandThumb1 -24.326973 -0.000000 -32.862282
LeftShoulder -21.203226 32.489110 -9.130758
LeftArm 47.885399 14.570268 -48.303872
LeftForeArm 37.390251 -0.000000 101.506481
LeftHand -11.961372 -0.000000 -11.689143
LeftHandThumb1 -26.253704 0.000000 33.147579
Head 2.617175 -9.575900 -12.704943
2438
root 4.019782 37.327887 0.830930 -8.600485 25.674617 24.123775
RightUpLeg 12.179677 -12.954405 -18.124094
RightLeg 24.345250 -0.000000 -0.000000
RightFoot -30.971513 -31.125586 17.395448
RightToeBase 4.532744 -0.000000 -0.000000
LeftUpLeg -65.550353 35.141500 -0.095966
LeftLeg 114.241397 -0.000000 -0.000000
LeftFoot 22.754781 19.046711 -28.687057
LeftToeBase -3.332599 -0.000000 0.000000
Spine 28.282955 -8.413753 -7.499515
RightShoulder 2.044090 -12.883431 -22.050084
RightArm 11.424905 32.079896 45.684898
RightForeArm 18.236951 -0.000000 114.748194
RightHand 5.055060 -0.000000 -33.867063
RightHandThumb1 -24.326973 -0.000000 -32.862282
LeftShoulder -21.226409 32.629747 -9.231873
LeftArm 47.754447 14.444186 -48.208214
LeftForeArm 37.336306 -0.000000 101.456846
LeftHand -12.032845 -0.000000 -11.699853
LeftHandThumb1 -26.253704 0.000000 33.147579
Head 2.956194 -9.268525 -12.998992
2439
root 4.039670 37.355107 0.847223 -8.183225 25.235397 24.594868
RightUpLeg 11.740073 -12.806968 -18.559948
RightLeg 24.530985 -0.000000 -0.000000
RightFoot -30.966001 -30.809745 17.409657
RightToeBase 4.413639 -0.000000 -0.000000
LeftUpLeg -64.424252 34.724684 1.191275
LeftLeg 114.331884 -0.000000 -0.000000
LeftFoot 22.406072 18.976378 -27.988395
LeftToeBase -3.220645 -0.000000 0.000000
Spine 27.723526 -8.305767 -8.112059
RightShoulder 2.095411 -13.062936 -21.946419
RightArm 11.969372 31.585929 45.817200
RightForeArm 18.087034 0.000000 114.500472
RightHand 5.119084 0.000000 -34.090264
RightHandThumb1 -24.326973 -0.000000 -32.862282
LeftShoulder -21.351967 32.670348 -9.295727
LeftArm 47.615770 14.406219 -48.085363
LeftForeArm 37.349505 -0.000000 101.391804
LeftHand -12.040157 -0.000000 -11.742931
LeftHandThumb1 -26.253704 0.000000 33.147579
Head 3.199794 -8.907864 -13.196187
